<svg width="396" height="116" viewBox="0 0 396 116" fill="none" xmlns="http://www.w3.org/2000/svg">
<path d="M129.742 53.389L130.235 50.112H139.979L140.472 53.389H129.742ZM135.049 44.283L132.004 51.272L132.091 52.2L129.423 58H124.754L135.049 36.511L145.344 58H140.646L138.036 52.374L138.094 51.33L135.049 44.283ZM161.988 37.7H165.99V59.015L151.548 45.414V58H147.546V36.685L161.988 50.286V37.7ZM170.4 37.7H174.634V58H170.4V37.7ZM177.302 58H173.068V54.23H177.157C178.047 54.23 178.888 54.114 179.68 53.882C180.473 53.6307 181.169 53.244 181.768 52.722C182.368 52.2 182.832 51.5427 183.16 50.75C183.508 49.938 183.682 48.9713 183.682 47.85C183.682 46.7287 183.508 45.7717 183.16 44.979C182.832 44.167 182.368 43.5 181.768 42.978C181.169 42.456 180.473 42.079 179.68 41.847C178.888 41.5957 178.047 41.47 177.157 41.47H173.068V37.7H177.302C179.429 37.7 181.285 38.1157 182.87 38.947C184.475 39.7783 185.722 40.9577 186.611 42.485C187.501 43.993 187.945 45.7813 187.945 47.85C187.945 49.9187 187.501 51.7167 186.611 53.244C185.722 54.752 184.475 55.9217 182.87 56.753C181.285 57.5843 179.429 58 177.302 58ZM195.77 48.546H200.149L206.761 58H201.86L195.77 48.546ZM191.159 37.7H195.306V58H191.159V37.7ZM193.682 41.238V37.7H197.974C199.579 37.7 200.942 37.9707 202.063 38.512C203.185 39.0533 204.045 39.8073 204.644 40.774C205.244 41.7407 205.543 42.8717 205.543 44.167C205.543 45.443 205.244 46.574 204.644 47.56C204.045 48.5267 203.185 49.2807 202.063 49.822C200.942 50.3633 199.579 50.634 197.974 50.634H193.682V47.328H197.713C198.448 47.328 199.076 47.212 199.598 46.98C200.14 46.7287 200.555 46.3807 200.845 45.936C201.135 45.472 201.28 44.921 201.28 44.283C201.28 43.645 201.135 43.1037 200.845 42.659C200.555 42.195 200.14 41.847 199.598 41.615C199.076 41.3637 198.448 41.238 197.713 41.238H193.682ZM211.811 58V54.491H222.048V58H211.811ZM211.811 41.209V37.7H222.048V41.209H211.811ZM211.811 48.952V45.501H221.468V48.952H211.811ZM209.143 37.7H213.145V58H209.143V37.7ZM228.948 53.389L229.441 50.112H239.185L239.678 53.389H228.948ZM234.255 44.283L231.21 51.272L231.297 52.2L228.629 58H223.96L234.255 36.511L244.55 58H239.852L237.242 52.374L237.3 51.33L234.255 44.283ZM258.259 53.389L258.752 50.112H268.496L268.989 53.389H258.259ZM263.566 44.283L260.521 51.272L260.608 52.2L257.94 58H253.271L263.566 36.511L273.861 58H269.163L266.553 52.374L266.611 51.33L263.566 44.283ZM276.063 37.7H280.297V58H276.063V37.7ZM282.965 58H278.731V54.23H282.82C283.71 54.23 284.551 54.114 285.343 53.882C286.136 53.6307 286.832 53.244 287.431 52.722C288.031 52.2 288.495 51.5427 288.823 50.75C289.171 49.938 289.345 48.9713 289.345 47.85C289.345 46.7287 289.171 45.7717 288.823 44.979C288.495 44.167 288.031 43.5 287.431 42.978C286.832 42.456 286.136 42.079 285.343 41.847C284.551 41.5957 283.71 41.47 282.82 41.47H278.731V37.7H282.965C285.092 37.7 286.948 38.1157 288.533 38.947C290.138 39.7783 291.385 40.9577 292.274 42.485C293.164 43.993 293.608 45.7813 293.608 47.85C293.608 49.9187 293.164 51.7167 292.274 53.244C291.385 54.752 290.138 55.9217 288.533 56.753C286.948 57.5843 285.092 58 282.965 58ZM296.822 37.7H301.056V58H296.822V37.7ZM303.724 58H299.49V54.23H303.579C304.469 54.23 305.31 54.114 306.102 53.882C306.895 53.6307 307.591 53.244 308.19 52.722C308.79 52.2 309.254 51.5427 309.582 50.75C309.93 49.938 310.104 48.9713 310.104 47.85C310.104 46.7287 309.93 45.7717 309.582 44.979C309.254 44.167 308.79 43.5 308.19 42.978C307.591 42.456 306.895 42.079 306.102 41.847C305.31 41.5957 304.469 41.47 303.579 41.47H299.49V37.7H303.724C305.851 37.7 307.707 38.1157 309.292 38.947C310.897 39.7783 312.144 40.9577 313.033 42.485C313.923 43.993 314.367 45.7813 314.367 47.85C314.367 49.9187 313.923 51.7167 313.033 53.244C312.144 54.752 310.897 55.9217 309.292 56.753C307.707 57.5843 305.851 58 303.724 58ZM319.516 53.389L320.009 50.112H329.753L330.246 53.389H319.516ZM324.823 44.283L321.778 51.272L321.865 52.2L319.197 58H314.528L324.823 36.511L335.118 58H330.42L327.81 52.374L327.868 51.33L324.823 44.283ZM340.423 47.705V45.82H343.7C344.3 45.82 344.822 45.7233 345.266 45.53C345.711 45.3367 346.049 45.0563 346.281 44.689C346.533 44.3217 346.658 43.8867 346.658 43.384C346.658 42.6107 346.388 42.021 345.846 41.615C345.324 41.209 344.609 41.006 343.7 41.006H341.467V54.694H344.135C344.831 54.694 345.46 54.5973 346.02 54.404C346.581 54.1913 347.016 53.8627 347.325 53.418C347.654 52.9733 347.818 52.403 347.818 51.707C347.818 51.2043 347.722 50.779 347.528 50.431C347.354 50.0637 347.093 49.764 346.745 49.532C346.417 49.2807 346.03 49.1067 345.585 49.01C345.141 48.894 344.657 48.836 344.135 48.836H340.423V46.574H344.512C345.498 46.574 346.436 46.6803 347.325 46.893C348.234 47.1057 349.046 47.444 349.761 47.908C350.477 48.3527 351.037 48.9327 351.443 49.648C351.869 50.3633 352.081 51.2237 352.081 52.229C352.081 53.563 351.762 54.6553 351.124 55.506C350.506 56.3567 349.626 56.985 348.485 57.391C347.345 57.797 346.02 58 344.512 58H337.32V37.7H344.077C345.431 37.7 346.62 37.8933 347.644 38.28C348.669 38.6473 349.471 39.208 350.051 39.962C350.631 40.716 350.921 41.673 350.921 42.833C350.921 43.8577 350.631 44.7373 350.051 45.472C349.471 46.2067 348.669 46.7673 347.644 47.154C346.62 47.5213 345.431 47.705 344.077 47.705H340.423ZM358.718 47.705V45.82H361.995C362.595 45.82 363.117 45.7233 363.561 45.53C364.006 45.3367 364.344 45.0563 364.576 44.689C364.828 44.3217 364.953 43.8867 364.953 43.384C364.953 42.6107 364.683 42.021 364.141 41.615C363.619 41.209 362.904 41.006 361.995 41.006H359.762V54.694H362.43C363.126 54.694 363.755 54.5973 364.315 54.404C364.876 54.1913 365.311 53.8627 365.62 53.418C365.949 52.9733 366.113 52.403 366.113 51.707C366.113 51.2043 366.017 50.779 365.823 50.431C365.649 50.0637 365.388 49.764 365.04 49.532C364.712 49.2807 364.325 49.1067 363.88 49.01C363.436 48.894 362.952 48.836 362.43 48.836H358.718V46.574H362.807C363.793 46.574 364.731 46.6803 365.62 46.893C366.529 47.1057 367.341 47.444 368.056 47.908C368.772 48.3527 369.332 48.9327 369.738 49.648C370.164 50.3633 370.376 51.2237 370.376 52.229C370.376 53.563 370.057 54.6553 369.419 55.506C368.801 56.3567 367.921 56.985 366.78 57.391C365.64 57.797 364.315 58 362.807 58H355.615V37.7H362.372C363.726 37.7 364.915 37.8933 365.939 38.28C366.964 38.6473 367.766 39.208 368.346 39.962C368.926 40.716 369.216 41.673 369.216 42.833C369.216 43.8577 368.926 44.7373 368.346 45.472C367.766 46.2067 366.964 46.7673 365.939 47.154C364.915 47.5213 363.726 47.705 362.372 47.705H358.718ZM377.129 47.85C377.129 49.1453 377.4 50.2957 377.941 51.301C378.483 52.3063 379.227 53.099 380.174 53.679C381.122 54.259 382.224 54.549 383.48 54.549C384.737 54.549 385.839 54.259 386.786 53.679C387.734 53.099 388.468 52.3063 388.99 51.301C389.532 50.2957 389.802 49.1453 389.802 47.85C389.802 46.5547 389.541 45.4043 389.019 44.399C388.497 43.3937 387.763 42.601 386.815 42.021C385.868 41.441 384.756 41.151 383.48 41.151C382.224 41.151 381.122 41.441 380.174 42.021C379.227 42.601 378.483 43.3937 377.941 44.399C377.4 45.4043 377.129 46.5547 377.129 47.85ZM372.75 47.85C372.75 46.3033 373.021 44.892 373.562 43.616C374.104 42.3207 374.858 41.1993 375.824 40.252C376.791 39.3047 377.922 38.5797 379.217 38.077C380.532 37.555 381.953 37.294 383.48 37.294C385.027 37.294 386.448 37.555 387.743 38.077C389.039 38.5797 390.17 39.3047 391.136 40.252C392.122 41.1993 392.876 42.3207 393.398 43.616C393.94 44.892 394.21 46.3033 394.21 47.85C394.21 49.3773 393.94 50.7983 393.398 52.113C392.876 53.4083 392.132 54.5393 391.165 55.506C390.218 56.4727 389.087 57.2267 387.772 57.768C386.477 58.29 385.046 58.551 383.48 58.551C381.914 58.551 380.474 58.29 379.159 57.768C377.864 57.2267 376.733 56.4727 375.766 55.506C374.8 54.5393 374.055 53.4083 373.533 52.113C373.011 50.7983 372.75 49.3773 372.75 47.85Z" fill="black"/>
<path d="M126.757 74.4827V73.2027H132.405V74.4827H126.757ZM126.757 64.5627V63.2827H132.405V64.5627H126.757ZM126.757 69.0427V67.7627H132.085V69.0427H126.757ZM126.005 63.2827H127.365V74.4827H126.005V63.2827ZM159.602 63.2827H160.962V75.0427L152.482 66.1467V74.4827H151.122V62.7227L159.602 71.6187V63.2827ZM185.048 70.0827V68.8027H190.248C190.248 69.5814 190.131 70.3227 189.896 71.0267C189.661 71.7201 189.315 72.3387 188.856 72.8827C188.397 73.4267 187.832 73.8587 187.16 74.1787C186.499 74.4881 185.741 74.6427 184.888 74.6427C184.077 74.6427 183.325 74.5041 182.632 74.2267C181.939 73.9387 181.336 73.5387 180.824 73.0267C180.312 72.5041 179.912 71.8907 179.624 71.1867C179.347 70.4827 179.208 69.7147 179.208 68.8827C179.208 68.0507 179.347 67.2827 179.624 66.5787C179.912 65.8747 180.312 65.2667 180.824 64.7547C181.336 64.2321 181.939 63.8321 182.632 63.5547C183.325 63.2667 184.077 63.1227 184.888 63.1227C185.581 63.1227 186.216 63.2134 186.792 63.3947C187.379 63.5761 187.901 63.8427 188.36 64.1947C188.829 64.5467 189.224 64.9841 189.544 65.5067L188.584 66.3867C188.232 65.7894 187.741 65.3254 187.112 64.9947C186.483 64.6534 185.741 64.4827 184.888 64.4827C184.099 64.4827 183.384 64.6694 182.744 65.0427C182.104 65.4161 181.592 65.9334 181.208 66.5947C180.835 67.2454 180.648 68.0081 180.648 68.8827C180.648 69.7467 180.835 70.5094 181.208 71.1707C181.592 71.8321 182.104 72.3494 182.744 72.7227C183.384 73.0961 184.099 73.2827 184.888 73.2827C185.443 73.2827 185.939 73.2027 186.376 73.0427C186.824 72.8721 187.208 72.6374 187.528 72.3387C187.848 72.0401 188.109 71.6987 188.312 71.3147C188.525 70.9307 188.68 70.5201 188.776 70.0827H185.048ZM208.574 63.2827H209.934V74.4827H208.574V63.2827ZM237.296 63.2827H238.656V75.0427L230.176 66.1467V74.4827H228.816V62.7227L237.296 71.6187V63.2827ZM258.294 74.4827V73.2027H263.942V74.4827H258.294ZM258.294 64.5627V63.2827H263.942V64.5627H258.294ZM258.294 69.0427V67.7627H263.622V69.0427H258.294ZM257.542 63.2827H258.902V74.4827H257.542V63.2827ZM283.411 74.4827V73.2027H289.059V74.4827H283.411ZM283.411 64.5627V63.2827H289.059V64.5627H283.411ZM283.411 69.0427V67.7627H288.739V69.0427H283.411ZM282.659 63.2827H284.019V74.4827H282.659V63.2827ZM309.776 68.9627H311.296L315.296 74.4827H313.616L309.776 68.9627ZM307.776 63.2827H309.136V74.4827H307.776V63.2827ZM308.528 64.4827V63.2827H310.816C311.541 63.2827 312.187 63.4214 312.752 63.6987C313.328 63.9654 313.781 64.3494 314.112 64.8507C314.453 65.3521 314.624 65.9494 314.624 66.6427C314.624 67.3254 314.453 67.9227 314.112 68.4347C313.781 68.9361 313.328 69.3254 312.752 69.6027C312.187 69.8694 311.541 70.0027 310.816 70.0027H308.528V68.8027H310.816C311.296 68.8027 311.717 68.7174 312.08 68.5467C312.453 68.3761 312.741 68.1307 312.944 67.8107C313.157 67.4907 313.264 67.1014 313.264 66.6427C313.264 66.1841 313.157 65.7947 312.944 65.4747C312.741 65.1547 312.453 64.9094 312.08 64.7387C311.717 64.5681 311.296 64.4827 310.816 64.4827H308.528ZM333.049 63.2827H334.409V74.4827H333.049V63.2827ZM361.771 63.2827H363.131V75.0427L354.651 66.1467V74.4827H353.291V62.7227L361.771 71.6187V63.2827ZM387.217 70.0827V68.8027H392.417C392.417 69.5814 392.3 70.3227 392.065 71.0267C391.831 71.7201 391.484 72.3387 391.025 72.8827C390.567 73.4267 390.001 73.8587 389.329 74.1787C388.668 74.4881 387.911 74.6427 387.057 74.6427C386.247 74.6427 385.495 74.5041 384.801 74.2267C384.108 73.9387 383.505 73.5387 382.993 73.0267C382.481 72.5041 382.081 71.8907 381.793 71.1867C381.516 70.4827 381.377 69.7147 381.377 68.8827C381.377 68.0507 381.516 67.2827 381.793 66.5787C382.081 65.8747 382.481 65.2667 382.993 64.7547C383.505 64.2321 384.108 63.8321 384.801 63.5547C385.495 63.2667 386.247 63.1227 387.057 63.1227C387.751 63.1227 388.385 63.2134 388.961 63.3947C389.548 63.5761 390.071 63.8427 390.529 64.1947C390.999 64.5467 391.393 64.9841 391.713 65.5067L390.753 66.3867C390.401 65.7894 389.911 65.3254 389.281 64.9947C388.652 64.6534 387.911 64.4827 387.057 64.4827C386.268 64.4827 385.553 64.6694 384.913 65.0427C384.273 65.4161 383.761 65.9334 383.377 66.5947C383.004 67.2454 382.817 68.0081 382.817 68.8827C382.817 69.7467 383.004 70.5094 383.377 71.1707C383.761 71.8321 384.273 72.3494 384.913 72.7227C385.553 73.0961 386.268 73.2827 387.057 73.2827C387.612 73.2827 388.108 73.2027 388.545 73.0427C388.993 72.8721 389.377 72.6374 389.697 72.3387C390.017 72.0401 390.279 71.6987 390.481 71.3147C390.695 70.9307 390.849 70.5201 390.945 70.0827H387.217Z" fill="#D6BE09"/>
<path d="M54.0005 85.0001V71.0001M20.0005 85.0001L28.5005 71.0001M28.5005 71.0001L37.0005 57.0001L54.0005 29.0001V71.0001M28.5005 71.0001H54.0005" stroke="#D6BE09" stroke-width="6"/>
<path d="M62.0005 85.0001V71.0001M96.0005 85.0001L87.5005 71.0001M87.5005 71.0001L79.0005 57.0001L62.0005 29.0001V71.0001M87.5005 71.0001H62.0005" stroke="#D6BE09" stroke-width="6"/>
<path fill-rule="evenodd" clip-rule="evenodd" d="M4.51779 58L57.9999 4.51785L111.482 58L94.9247 74.5574L96.5274 77.1973L113.603 60.1213L115.725 58L113.603 55.8787L60.1213 2.39653L57.9999 0.275208L55.8786 2.39653L2.39647 55.8787L0.275146 58L2.39647 60.1213L19.473 77.1978L21.0757 74.558L4.51779 58ZM27.6271 81.1093L26.0243 83.7492L55.8786 113.603L57.9999 115.725L60.1213 113.603L89.9761 83.7486L88.3733 81.1088L57.9999 111.482L27.6271 81.1093Z" fill="black"/>
<path fill-rule="evenodd" clip-rule="evenodd" d="M9.51764 58L58.0001 9.51749L106.483 58L93.0361 71.4466L94.1046 73.2065L107.897 59.4142L109.311 58L107.897 56.5858L59.4144 8.10328L58.0001 6.68907L56.5859 8.10328L8.10342 56.5858L6.68921 58L8.10342 59.4142L21.8961 73.2069L22.9647 71.447L9.51764 58ZM29.516 77.9984L28.4475 79.7583L56.5859 107.897L58.0001 109.311L59.4144 107.897L87.5532 79.7578L86.4847 77.9979L58.0001 106.483L29.516 77.9984Z" fill="black"/>
</svg>
